<?xml version="1.0" encoding="utf-8"?>
<!-- Generator: Adobe Illustrator 22.1.0, SVG Export Plug-In . SVG Version: 6.00 Build 0)  -->
<svg version="1.1" id="Layer_1" xmlns="http://www.w3.org/2000/svg" xmlns:xlink="http://www.w3.org/1999/xlink" x="0px" y="0px"
	 viewBox="0 0 1000 1000" style="enable-background:new 0 0 1000 1000;" xml:space="preserve">
<style type="text/css">
	.st0{fill:#76BF49;}
	.st1{fill:#674098;}
	.st2{fill:#FFFFFF;}
	.st3{fill:#5AB9E9;}
	.st4{fill:#57B8E9;}
	.st5{fill:#E1DF19;}
</style>
<path class="st0" d="M270.4,630.4c0.7-0.7,0.6-1.4-0.1-2.1c-17.5-19.6-17.8-43.9-0.7-62.5c18.9-20.6,44-23.6,65.9-7.7
	c28.3,20.5,28.1,20.3,54.4-3.7c13.5-12.3,28.5-22.1,47.5-24.4c11.7-1.4,24.2-3.6,27.2-17.5c2.6-12.5-8.6-17.5-16.4-23.9
	c-1.6-1.3-3-2.7-4.3-4.3c-31.3-37.8-38.7-79.3-18-124.4c18.9-41.2,63.5-66.8,106.8-62.6c48.1,4.6,88.2,39.3,99.4,85.1
	c5.8,23.6,4.6,46-7.1,67.5c-5.7,5.7-12.1,10.8-14.3,19.2c-2.3,4.8-4.7,9.5-9.3,12.5c-8.8,1.4-10.9,9.3-14.9,15.4
	c-10.9,12.2-25.6,16.5-40.9,19.2c-7,1.2-13.9,2-20.1,5.8c-13.8,8.4-16.5,18.8-6.9,31.8c10.3,14,19.9,28.3,23.8,45.6
	c4.4,30.3-1.1,57.4-24.7,78.9l0.1-0.2c-8.5,8.7-16.2,18.4-28.6,22c-56.4,16.6-96.6-0.7-120.9-51.9c-4.6-22.7-11.9-25.8-30.5-12.9
	C314.7,651.2,291.2,649.5,270.4,630.4z"/>
<path class="st1" d="M645.5,596.8c-21,28.8-39.6,32.7-72.4,15.3c-11.8-3.2-14.7-12.1-14.7-22.9c2.6-9.6,1.2-19.2,0.6-28.9
	c8.9-23.3,25.3-33.6,50.7-32c22.7,1.5,27.2-2.5,27.8-25.5c0.5-16-0.7-32.1,5.2-47.6c16.1-41.9,54-67,102.8-67.4
	c5.6,1.4,11.4,2.6,17.1,3.4c10.8,3,21.7,5.9,30.4,13.6c6.7,4.6,11.5,11.1,17,17c13.8,16.1,22.7,34.6,27.5,55.2
	c4.2,25.5,1.6,49.4-16.1,69.8l0,0c-2,4.9-2,10.6-6.4,14.5c-3.2,3.6-6.7,6.8-10.6,9.5c-32.9,25-69.1,25.5-106.8,14
	c-8.3-2.5-14.4-8.1-18.9-15.5l-0.1,0.1c-4.2-0.7-6.9-4-10.4-5.8c-6.5-2-10.4,0.6-12.3,6.8C652.4,579.1,653.9,589.9,645.5,596.8z"/>
<path class="st2" d="M908,251.1c22.6,10,26.8,31.2,29.8,51.9c3.6,24.9-4.9,46.7-20.1,66.7c-13.8,18.2-7.5,33,14.8,37.2
	c29.2,5.5,48.2,23.5,52.6,49.5c4.2,25.2-6.8,51.8-26,62.3c-28.3,15.5-52.6,13.5-76.3-6.2c-2-1.6-4-3.3-5.9-4.9
	c-18.3-20.5-20.2-43.4-8.9-67.6c11.6-24.8,4.7-36.5-22.8-36.8c-19.6-0.2-35.4-10.5-52.2-18.2c-1.8-1-3.4-2.3-4.9-3.7
	c-5.1-5.3-8.1-11.8-10.3-18.7c-1.2-7.1-5-13.3-8-19.7c-25.4-53.7,21.6-116.4,80.8-117.6C872,224.8,893.2,232.9,908,251.1z"/>
<path class="st2" d="M246.9,197.8c8.1-6.4,12.8-16.4,22.6-21c24.6-14.4,49.6-25.4,79.8-21c53.1,7.7,92.9,56,89.2,109.7
	c-2.3,33.9-19.6,58.8-43.9,80.3c-39.1,27.3-89,24.9-127.3-6.2c-23.4-19-34.5-16.5-48.4,10.9c-13.8,27.2-45.8,37.8-72.6,23.9
	c-25.7-13.2-36-46.2-22.5-71.6c14.2-26.6,46.6-36.3,73.2-21.8c3.4,1.8,6.4,4.5,9.8,6.2c14.4,7.1,24.9,1,23.4-15.2
	C227.8,245.2,233.7,220.9,246.9,197.8z"/>
<path class="st3" d="M802.4,590.7c23.7-8.6,47-16.7,73.2-10.3c43.9,10.8,72.9,40.6,80.7,85.9c6.5,37.4-13.3,79.6-47.4,100.9
	c-36.5,22.9-78,21.4-114.4-4.1c-5.3-3.7-10.3-7.6-15.5-11.5c-6-9.1-12-18.2-18.1-27.2c-13.2-19.8-29.6-20.8-44.9-2.9
	c-16.7,19.5-39.7,25.3-62.6,15.8c-20.2-8.4-32.1-29.2-30.5-53.3c1.5-22.5,17.1-40.8,40.3-46.1c20-4.6,36.6,2.4,50.8,16.7
	c19.8,19.9,33.6,17.3,44.1-9C767.4,622.6,782.9,605.1,802.4,590.7z"/>
<path class="st4" d="M107.8,399.7c47.4-4,87.3,9.5,117.6,48.3c10.8,13.8,26.2,13.2,47.1,1.4c6.2-2,11.1-4.1,13.2-12
	c7.5-28.5,33.8-39.7,68.2-30.1c20.8,5.9,37.7,37.7,31.5,59.5c-10.8,37.8-42.8,51.8-78.4,34.4c-4.1-2-8-4.2-12.2-5.9
	c-30.6-12.2-54.5,3.1-55.9,35.9c-1.4,32-34.1,75.5-64.1,85.3c-28.7,9.4-57.4,13.6-86.6,1.3c-3.9-1.6-8.9-0.5-13.4-0.6
	c-2.2-0.4-4.4-0.8-6.5-1.2c-66.1-49.7-74-132.9-18-185.8C66.7,414.7,87.3,407.5,107.8,399.7z"/>
<path class="st5" d="M727.9,154.5c17.7,10.9,23.3,29.7,31,47.3c4.5,39.9-2.3,75.7-36.4,101.8c-42.8,32.8-96.5,28.6-134.1-10.4
	c-3.6-3.7-7.3-7.2-10.9-10.9c-11.6-10.3-14.2-24.7-17.6-38.8c-0.4-1.9-0.5-3.9-0.5-5.9c-0.3-6.9,1.1-13.9-2-20.5
	c-9-17.3-22.1-14.1-36.2-7.6c-30.2,13.8-58.7,3.8-72.5-25.7c-6.4-13.6-5.1-27.6-0.3-41.5c0-3.2,0.3-6.4,3.5-8.2
	c3.9-5.3,5.6-12.7,13.5-14.2c13.5-1.2,25.4-11.3,40.3-6.3c9,3,18.1,5.2,25,12.2c8.1,7.6,13,16.7,16.7,27.5
	c7.4,22,23.2,25.2,39.3,8.4c30-31.4,66.6-37,106.7-28.2C706.6,136.6,716.6,147.2,727.9,154.5z"/>
</svg>
