<?xml version="1.0" encoding="utf-8"?>
<!-- Generator: Adobe Illustrator 22.1.0, SVG Export Plug-In . SVG Version: 6.00 Build 0)  -->
<svg version="1.1" id="Layer_1" xmlns="http://www.w3.org/2000/svg" xmlns:xlink="http://www.w3.org/1999/xlink" x="0px" y="0px"
	 viewBox="0 0 1000 1000" style="enable-background:new 0 0 1000 1000;" xml:space="preserve">
<style type="text/css">
	.st0{fill:#CC0841;}
	.st1{enable-background:new    ;}
	.st2{fill:#FFFFFF;}
</style>
<rect y="0" class="st0" width="1000" height="1000"/>
<g class="st1">
	<path class="st2" d="M284.2,165.9c13.2,10,55.1,14.9,125.7,14.9l-0.4,7.5h-52.3l-0.4,7.5c62.4,0,101.4,14.9,116.9,44.8l-0.9,14.9
		h-37.4l-0.4,7.5l51.9,7.5l-0.4,7.5h-44.8l-0.4,7.5c14.9,0,22.1,5,21.5,14.9c-88.8,0-168,32.4-237.7,97.1l-0.4,7.5
		c96.4,25.8,172.7,83.1,229,171.8l-0.4,7.5c-18.2,64.5-69,124.2-152.5,179.3l-45.7,7.5l-0.4,7.5h14.9
		c-0.6,13.5-46.3,28.4-137.1,44.8l0.9-14.9h37.4l0.9-7.5c-31.9,0-60.8-17.4-86.6-52.3c-22.3-11.4-33.4-33.2-33.4-65.5
		c0-2.9,0.1-6,0.4-9.2L75,659l21.5,14.9h14.9c140.6-22,213.1-66.8,217.5-134.5c-58.9-29.9-97.9-44.8-116.9-44.8l-0.4,7.5l-73.4-29.9
		l7,7.5l-0.4,14.9c-62.1-45.7-92.4-80.6-91-104.6l58.4-104.6l39.1-29.9l-0.9,14.9L284.2,165.9z M179.6,786l-0.4,7.5H209l37.8-7.5
		v-7.5h-7.5L179.6,786z M182.2,367.6l-0.4,7.5l131.8-82.2l60.6-14.9l0.9-14.9h-14.9C281.4,292.3,222.1,327.2,182.2,367.6z
		 M223.5,673.9h7.5l15.8-14.9h-7.5L223.5,673.9z M264.4,733.7v7.5h7.5l31.2-22.4L264.4,733.7z M358,673.9l-32.1,37.4h7.5l32.1-37.4
		H358z"/>
	<path class="st2" d="M775,142.6c3.2,14.9,23.1,22.4,59.8,22.4l59.8,261.5h52.3v7.5l-44.8,7.5v7.5c14.9,0,22.4,5,22.4,14.9h59.8v7.5
		c0,11.1-24.9,21.1-74.7,29.9l14.9,44.8l-7.5,22.4l7.5,44.8l-7.5,7.5h7.5l-7.5,7.5l7.5,89.6v44.8l-7.5-7.5h-7.5l22.4,112.1H917
		c0-14.9-5-22.4-14.9-22.4v7.5l7.5,22.4H902l-7.5-7.5h-7.5c0,14.9-5,22.4-14.9,22.4l-37.4-127h-7.5v29.9h-7.5l-14.9-89.6l22.4,14.9
		v-7.5c-4.1-44.8-11.6-67.2-22.4-67.2l7.5-7.5v-22.4h-14.9v22.4H790v-29.9l7.5-7.5H790l-7.5,7.5v-29.9h7.5l7.5,7.5h7.5l-7.5-7.5
		v-44.8l-164.4,37.4v14.9l52.3-14.9l29.9,7.5l37.4-7.5v14.9c-104.6,18.8-156.9,43.7-156.9,74.7c-13.2,54.8-28.1,89.6-44.8,104.6
		v14.9h-22.4l-7.5-7.5h-7.5v7.5l-22.4-14.9l14.9-44.8h-7.5c-14.9,0-22.4,19.9-22.4,59.8l-14.9-14.9l7.5-44.8l-22.4-22.4l127-306.3
		h7.5c0,14.9,5,22.4,14.9,22.4l7.5-37.4l-7.5,7.5h-7.5v-29.9l7.5-37.4l7.5,7.5h7.5l-7.5-7.5V307l14.9-29.9h7.5l7.5,7.5h7.5v-7.5
		c0-10-7.5-14.9-22.4-14.9l37.4-104.6h29.9l-7.5,7.5v7.5C712.5,152.6,744.9,142.6,775,142.6z M558.4,463.9l-7.5,29.9h7.5l14.9-29.9
		H558.4z M580.8,426.5l-7.5,7.5v14.9h7.5l7.5-22.4H580.8z M625.6,456.4l-7.5,29.9h7.5l7.5-7.5v-22.4H625.6z M663,359.3L648,411.6
		l-7.5-7.5h-7.5l7.5,29.9h7.5l22.4-67.2v-7.5H663z M730.2,314.5l-59.8,156.9h14.9c49.8,0,77.2-14.9,82.2-44.8l-29.9-112.1H730.2z
		 M685.4,486.3v7.5h14.9c44.8-5,67.2-12.4,67.2-22.4h-7.5L685.4,486.3z M790,650.6h14.9v44.8h-7.5L790,650.6z M819.9,725.3v14.9
		l22.4-7.5v-14.9L819.9,725.3z M894.6,702.9v14.9l7.5,29.9h7.5v-14.9l-7.5-29.9H894.6z"/>
</g>
</svg>
