<?xml version="1.0" encoding="utf-8"?>
<!-- Generator: Adobe Illustrator 22.1.0, SVG Export Plug-In . SVG Version: 6.00 Build 0)  -->
<svg version="1.1" id="Layer_1" xmlns="http://www.w3.org/2000/svg" xmlns:xlink="http://www.w3.org/1999/xlink" x="0px" y="0px"
	 viewBox="0 0 1000 1000" style="enable-background:new 0 0 1000 1000;" xml:space="preserve">
<style type="text/css">
	.st0{fill:#CC0841;}
	.st1{enable-background:new    ;}
	.st2{fill:#FFFFFF;}
</style>
<rect y="0" class="st0" width="1000" height="1000"/>
<g class="st1">
	<path class="st2" d="M296.6,676.9c2.2,1.7,9.2,2.5,20.9,2.5l-0.1,1.2h-8.7l-0.1,1.2c10.4,0,16.9,2.5,19.5,7.5l-0.1,2.5h-6.2
		l-0.1,1.2l8.6,1.2l-0.1,1.2h-7.5l-0.1,1.2c2.5,0,3.7,0.8,3.6,2.5c-14.8,0-28,5.4-39.6,16.2l-0.1,1.2c16.1,4.3,28.8,13.8,38.2,28.6
		l-0.1,1.2c-3,10.7-11.5,20.7-25.4,29.9l-7.6,1.2l-0.1,1.2h2.5c-0.1,2.2-7.7,4.7-22.9,7.5l0.1-2.5h6.2l0.1-1.2
		c-5.3,0-10.1-2.9-14.4-8.7c-3.7-1.9-5.6-5.5-5.6-10.9c0-0.5,0-1,0.1-1.5l3.9-2.5l3.6,2.5h2.5c23.4-3.7,35.5-11.1,36.3-22.4
		c-9.8-5-16.3-7.5-19.5-7.5l-0.1,1.2l-12.2-5l1.2,1.2l-0.1,2.5c-10.4-7.6-15.4-13.4-15.2-17.4l9.7-17.4l6.5-5l-0.1,2.5L296.6,676.9z
		 M279.2,780.2l-0.1,1.2h5l6.3-1.2V779h-1.2L279.2,780.2z M279.6,710.5l-0.1,1.2l22-13.7l10.1-2.5l0.1-2.5h-2.5
		C296.2,697.9,286.3,703.8,279.6,710.5z M286.5,761.5h1.2l2.6-2.5h-1.2L286.5,761.5z M293.3,771.5v1.2h1.2l5.2-3.7L293.3,771.5z
		 M308.9,761.5l-5.3,6.2h1.2l5.3-6.2H308.9z"/>
	<path class="st2" d="M345.3,678h1.2v3.7h1.2v-2.5h5c1.7,0,2.5,2.5,2.5,7.5l3.7,1.2c0-2.5,0.8-3.7,2.5-3.7l1.2,1.2v1.2l-6.2,33.6
		l18.7-1.2h12.5l1.2-6.2l-1.2-1.2h2.5l-1.2-8.7v-1.2h2.5l-1.2-1.2v-2.5h2.5v-2.5h-2.5v-1.2h2.5l-1.2-1.2v-8.7l1.2,1.2h1.2v-5
		l-1.2-1.2V678h3.7l-6.2,42.3c1.7,0,4.1-13.7,7.5-41.1l5-1.2c0.8,6.6,2.1,10,3.7,10h1.2c0-2.5,0.8-3.7,2.5-3.7h1.2
		c-4.2,28.7-10.4,62.3-18.7,100.9h-1.2l-1.2-1.2l1.2-1.2v-10h-1.2l-3.7,12.5h-3.7c-1.7,0-2.5-2.5-2.5-7.5h-1.2v5h-1.2
		c-1.7,0-2.5-1.2-2.5-3.7c0-6,2.5-20.1,7.5-42.3h-1.2l-16.2,1.2l-11.2-1.2c-2.5,19.9-5,33.2-7.5,39.8h-3.7c-1.7,0-2.5-3.3-2.5-10
		H339l-1.2,8.7l-2.5-2.5v-3.7l1.2-1.2v-1.2l-1.2-1.2h-1.2l-1.2,1.2h-1.2l-1.2-5c3.3-28,7.1-48.4,11.2-61h1.2l-1.2-1.2v-3.7l3.7-13.7
		H344L345.3,678z M331.6,767.6h1.2v6.2h-1.2V767.6z M339,725.3v5h1.2v-5H339z M341.5,712.8l-1.2,6.2v1.2h1.2l1.2-5v-2.5H341.5z
		 M342.8,706.6v5h1.2v-5H342.8z M345.3,692.9l-1.2,10v2.5h1.2l1.2-10v-2.5H345.3z M346.5,683v8.7h1.2V683H346.5z M383.9,747.7v5h1.2
		v-5H383.9z M386.4,737.7l-1.2,7.5v1.2h1.2l1.2-6.2v-2.5H386.4z M392.6,761.4l-1.2,6.2v3.7h1.2l1.2-8.7v-1.2H392.6z"/>
	<path class="st2" d="M467,678.3c9.8,0,18.9,2.9,27.4,8.7l-1.2,1.2v1.2l5,7.5h-2.5l-1.2-1.2h-1.2l3.7,27.4h1.2
		c0-4.1,0.8-6.2,2.5-6.2v5c0,4.7-4.2,15.5-12.5,32.4h1.2c-5.9,8.1-14.6,15.5-26.1,22.4l-6.2,1.2h-1.2c-19.7,0-32.2-7.9-37.4-23.7
		l-5-7.5l1.2-1.2l-1.2-8.7v-2.5c0-6.9,6.6-18.9,19.9-36.1v1.2c-6.1,8.2-11.1,17.3-14.9,27.4v1.2h1.2c3-12.2,14.2-27.5,33.6-46.1
		l-8.7,5h-1.2C443.3,683.2,451.2,680.3,467,678.3z M417.2,734.4v10h1.2v-10H417.2z M433.4,716.9l-3.7,7.5h1.2l3.7-7.5H433.4z
		 M460.8,699.5l-1.2-1.2v1.2l1.2,1.2l-8.7,7.5c-6.9,0-13.5,11.6-19.9,34.9c0,6.6,3.7,12.5,11.2,17.4h1.2c9.1,0,19.5-9.5,31.1-28.6
		c4.1-9.1,6.2-15.7,6.2-19.9v-10c0-2.3-4.2-4-12.5-5h-1.2l-1.2,1.2h-1.2V697L460.8,699.5z M435.9,765.5v1.2l6.2,3.7v-1.2
		L435.9,765.5z M475.7,738.1l-5,6.2h1.2l5-6.2H475.7z M481.9,724.4l-5,12.5h3.7l3.7-8.7l-1.2-3.7H481.9z M490.7,729.4l-1.2,3.7v2.5
		h1.2l1.2-5v-1.2H490.7z M496.9,703.2h2.5v6.2h-2.5V703.2z"/>
	<path class="st2" d="M521.1,678.3h5l3.7,2.5l8.7-1.2c14.4,0,27.7,8.3,39.8,24.9l6.2,12.5l-1.2,1.2l1.2,6.2v6.2
		c0,21.3-17.4,37.5-52.3,48.6l-12.5,1.2c0-2.1-1.7-3.3-5-3.7v5h-3.7v-7.5l-1.2-1.2l1.2-1.2v-1.2c-5-3.4-7.5-6.3-7.5-8.7
		c2.5-37.6,6.6-65,12.5-82.2h1.2l1.2,1.2L521.1,678.3z M508.7,774.2h1.2v1.2l-2.5,2.5h-1.2v-1.2L508.7,774.2z M516.1,690.8
		l-6.2,36.1v1.2h1.2l6.2-34.9v-2.5H516.1z M522.4,766.7l1.2,3.7h2.5l2.5-2.5v-1.2h-1.2l-3.7,1.2L522.4,766.7z M536.1,699.5
		c0,1.7-1.7,2.5-5,2.5c-3.3,15.1-5.8,32.6-7.5,52.3c4.8,0,17.3-4.1,37.4-12.5v-1.2h-2.5c6.6-6.8,10-13.8,10-21.2v-3.7
		c0-9.1-6.2-14.5-18.7-16.2H536.1z M532.3,765.5v1.2h5l6.2-2.5V763h-1.2L532.3,765.5z M561,699.5v1.2l5,2.5V702l-3.7-2.5H561z
		 M561,758c2-0.3,4.9-2.8,8.7-7.5v-1.2L561,758z M568.4,735.6l-2.5,5h1.2l2.5-5H568.4z M572.2,716.9l-1.2,14.9h2.5v-3.7l1.2-5
		l-1.2-6.2H572.2z M580.9,726.9l-6.2,19.9v1.2h1.2l6.2-18.7v-2.5H580.9z"/>
	<path class="st2" d="M604.7,678.3h5l3.7,2.5l8.7-1.2c14.4,0,27.7,8.3,39.8,24.9l6.2,12.5l-1.2,1.2l1.2,6.2v6.2
		c0,21.3-17.4,37.5-52.3,48.6l-12.5,1.2c0-2.1-1.7-3.3-5-3.7v5h-3.7v-7.5l-1.2-1.2l1.2-1.2v-1.2c-5-3.4-7.5-6.3-7.5-8.7
		c2.5-37.6,6.6-65,12.5-82.2h1.2l1.2,1.2L604.7,678.3z M592.2,774.2h1.2v1.2l-2.5,2.5h-1.2v-1.2L592.2,774.2z M599.7,690.8
		l-6.2,36.1v1.2h1.2l6.2-34.9v-2.5H599.7z M605.9,766.7l1.2,3.7h2.5l2.5-2.5v-1.2h-1.2l-3.7,1.2L605.9,766.7z M619.6,699.5
		c0,1.7-1.7,2.5-5,2.5c-3.3,15.1-5.8,32.6-7.5,52.3c4.8,0,17.3-4.1,37.4-12.5v-1.2H642c6.6-6.8,10-13.8,10-21.2v-3.7
		c0-9.1-6.2-14.5-18.7-16.2H619.6z M615.9,765.5v1.2h5l6.2-2.5V763h-1.2L615.9,765.5z M644.5,699.5v1.2l5,2.5V702l-3.7-2.5H644.5z
		 M644.5,758c2-0.3,4.9-2.8,8.7-7.5v-1.2L644.5,758z M652,735.6l-2.5,5h1.2l2.5-5H652z M655.7,716.9l-1.2,14.9h2.5v-3.7l1.2-5
		l-1.2-6.2H655.7z M664.5,726.9l-6.2,19.9v1.2h1.2l6.2-18.7v-2.5H664.5z"/>
	<path class="st2" d="M730.1,675.6h1.2v2.5l1.2-1.2h1.2c5.8,2,8.7,3.6,8.7,5l-6.2,7.5h2.5c3.3-1.7,5-3.8,5-6.2h3.7v1.2l-1.2,1.2
		l1.2,1.2v1.2c-29.5,31.7-43.9,57-43.2,75.9l-2.5,12.4l1.2,1.2v1.2l-6.2,11.2l-10-1.2v-10l-3.7-4.9v-2.5l1.2-14.9l1.2,1.2h1.2
		l-1.2-1.2v-1.2l1.2-1.2v-1.2l-1.2-1.2l3.7-1.2l-1.2,6.2v5h1.2l1.5-15l-1.2-3.7h-1.2v3.7h-1.2l-1.2-10l1.2-1.2v-1.2l-17.1-43.7v-2.5
		h2.5l-2.5-6.2l1.2-1.2h2.5c1.9,0,3.1,2.1,3.7,6.2l3.7-2.5h3.7c0,5.1,4.5,16,13.4,32.5c4.8-9.1,8.9-14.5,12.5-16.2v1.2
		c-8.3,10.5-12.5,16.8-12.5,18.7v1.2h1.2l29.3-39.7v-1.2l-14.4,14.8v-1.2L730.1,675.6z M690.6,781.2v5h1.2v-5H690.6z M731.3,694.2
		c-17.9,22.9-26.8,36.1-26.8,39.7h2.5c7.2-13.8,15.7-27.1,25.6-39.7H731.3z M714.5,695.3v1.2l-2.5,2.5v-1.2L714.5,695.3z"/>
</g>
<g class="st1">
	<path class="st2" d="M206.3,853c0.5,2.5,3.9,3.7,10,3.7l10,43.6h8.7v1.2l-7.5,1.2v1.2c2.5,0,3.7,0.8,3.7,2.5h10v1.2
		c0,1.9-4.2,3.5-12.5,5l2.5,7.5L230,924l1.2,7.5l-1.2,1.2h1.2l-1.2,1.2l1.2,14.9v7.5l-1.2-1.2h-1.2l3.7,18.7H230
		c0-2.5-0.8-3.7-2.5-3.7v1.2l1.2,3.7h-1.2l-1.2-1.2H225c0,2.5-0.8,3.7-2.5,3.7l-6.2-21.2H215v5h-1.2l-2.5-14.9l3.7,2.5v-1.2
		c-0.7-7.5-1.9-11.2-3.7-11.2l1.2-1.2v-3.7h-2.5v3.7h-1.2v-5l1.2-1.2h-1.2l-1.2,1.2v-5h1.2l1.2,1.2h1.2l-1.2-1.2v-7.5l-27.4,6.2v2.5
		l8.7-2.5l5,1.2l6.2-1.2v2.5c-17.4,3.1-26.1,7.3-26.1,12.5c-2.2,9.1-4.7,14.9-7.5,17.4v2.5h-3.7l-1.2-1.2h-1.2v1.2l-3.7-2.5l2.5-7.5
		h-1.2c-2.5,0-3.7,3.3-3.7,10l-2.5-2.5l1.2-7.5l-3.7-3.7l21.2-51h1.2c0,2.5,0.8,3.7,2.5,3.7l1.2-6.2l-1.2,1.2h-1.2v-5l1.2-6.2
		l1.2,1.2h1.2l-1.2-1.2v-1.2l2.5-5h1.2l1.2,1.2h1.2v-1.2c0-1.7-1.2-2.5-3.7-2.5l6.2-17.4h5l-1.2,1.2v1.2
		C195.9,854.7,201.3,853,206.3,853z M170.2,906.5l-1.2,5h1.2l2.5-5H170.2z M174,900.3l-1.2,1.2v2.5h1.2l1.2-3.7H174z M181.4,905.3
		l-1.2,5h1.2l1.2-1.2v-3.7H181.4z M187.7,889.1l-2.5,8.7l-1.2-1.2h-1.2l1.2,5h1.2l3.7-11.2v-1.2H187.7z M198.9,881.6l-10,26.1h2.5
		c8.3,0,12.9-2.5,13.7-7.5l-5-18.7H198.9z M191.4,910.3v1.2h2.5c7.5-0.8,11.2-2.1,11.2-3.7h-1.2L191.4,910.3z M208.8,937.7h2.5v7.5
		h-1.2L208.8,937.7z M213.8,950.1v2.5l3.7-1.2v-2.5L213.8,950.1z M226.3,946.4v2.5l1.2,5h1.2v-2.5l-1.2-5H226.3z"/>
	<path class="st2" d="M270,859.3l8.7,7.5c0-2.5,0.8-3.7,2.5-3.7h1.2l17.4,44.8v2.5h-1.2l-2.5-7.5h-1.2v2.5l8.7,21.2h1.2
		c3.3-21.6,8.1-44.1,14.4-67.6l3.7,2.5l3.7-1.2l7.5,3.7v1.2c-2.5,0-3.7,1.7-3.7,5h1.2l1.2,1.2h1.2l1.2-6.2h2.5v1.2l-1.2,1.2l1.2,1.2
		v1.2c-6.3,19.2-11.9,46.7-16.8,82.5h-2.5l2.5-19.9c-1.7,0-4.2,7.9-7.5,23.7c-3.1,2.5-6,3.7-8.7,3.7v2.5h-1.2c0-1.7-1.7-2.5-5-2.5
		v-8.7c0-3.8-8.3-24.5-24.9-62.3h-1.2c-3.3,14.8-6.2,34.7-8.7,59.8l-1.2-1.2c-5,1.5-7.5,3.5-7.5,6.2h-2.5c-1.7-3.1-2.5-8.5-2.5-16.2
		h-1.2v11.2h-2.5l-1.2-6.2c0-22.6,5-50,14.9-82.2L270,859.3z M252.5,890.4v1.2l1.2,1.2l-1.2,1.2v2.5h1.2l1.2-5l-1.2-1.2H252.5z
		 M299.9,910.3c2.1,0,3.8,3.3,5,10v1.2h-1.2L299.9,910.3z"/>
	<path class="st2" d="M388.2,853c0.5,2.5,3.9,3.7,10,3.7l10,43.6h8.7v1.2l-7.5,1.2v1.2c2.5,0,3.7,0.8,3.7,2.5h10v1.2
		c0,1.9-4.2,3.5-12.5,5l2.5,7.5l-1.2,3.7l1.2,7.5l-1.2,1.2h1.2l-1.2,1.2l1.2,14.9v7.5l-1.2-1.2h-1.2l3.7,18.7h-2.5
		c0-2.5-0.8-3.7-2.5-3.7v1.2l1.2,3.7h-1.2l-1.2-1.2h-1.2c0,2.5-0.8,3.7-2.5,3.7l-6.2-21.2h-1.2v5h-1.2l-2.5-14.9l3.7,2.5v-1.2
		c-0.7-7.5-1.9-11.2-3.7-11.2l1.2-1.2v-3.7h-2.5v3.7h-1.2v-5l1.2-1.2h-1.2l-1.2,1.2v-5h1.2l1.2,1.2h1.2l-1.2-1.2v-7.5l-27.4,6.2v2.5
		l8.7-2.5l5,1.2l6.2-1.2v2.5c-17.4,3.1-26.1,7.3-26.1,12.5c-2.2,9.1-4.7,14.9-7.5,17.4v2.5h-3.7l-1.2-1.2h-1.2v1.2l-3.7-2.5l2.5-7.5
		h-1.2c-2.5,0-3.7,3.3-3.7,10l-2.5-2.5l1.2-7.5l-3.7-3.7l21.2-51h1.2c0,2.5,0.8,3.7,2.5,3.7l1.2-6.2l-1.2,1.2h-1.2v-5l1.2-6.2
		l1.2,1.2h1.2l-1.2-1.2v-1.2l2.5-5h1.2l1.2,1.2h1.2v-1.2c0-1.7-1.2-2.5-3.7-2.5l6.2-17.4h5l-1.2,1.2v1.2
		C377.8,854.7,383.2,853,388.2,853z M352.1,906.5l-1.2,5h1.2l2.5-5H352.1z M355.8,900.3l-1.2,1.2v2.5h1.2l1.2-3.7H355.8z
		 M363.3,905.3l-1.2,5h1.2l1.2-1.2v-3.7H363.3z M369.5,889.1l-2.5,8.7l-1.2-1.2h-1.2l1.2,5h1.2l3.7-11.2v-1.2H369.5z M380.7,881.6
		l-10,26.1h2.5c8.3,0,12.9-2.5,13.7-7.5l-5-18.7H380.7z M373.2,910.3v1.2h2.5c7.5-0.8,11.2-2.1,11.2-3.7h-1.2L373.2,910.3z
		 M390.7,937.7h2.5v7.5h-1.2L390.7,937.7z M395.7,950.1v2.5l3.7-1.2v-2.5L395.7,950.1z M408.1,946.4v2.5l1.2,5h1.2v-2.5l-1.2-5
		H408.1z"/>
	<path class="st2" d="M445.7,858c1.7,0,2.5,2.5,2.5,7.5h2.5l3.7-2.5l1.2,1.2l-6.2,69.7c5.3-2.5,19.4-5.4,42.3-8.7h1.2v1.2
		c-29.1,4.7-43.6,8.5-43.6,11.2l13.7-3.7v1.2l23.7-5v1.2l1.2-1.2h1.2l1.2,1.2l6.2-1.2h5l8.7,1.2v1.2c0,2.5-6.2,4.6-18.7,6.2v1.2
		l1.2-1.2h1.2l8.7,1.2l1.2-1.2v3.7l-41.1,10l-26.1,10h-3.7l-5-6.2H427v-1.2c0-2.1,1.7-3.3,5-3.7v-3.7l-3.7-5l5-56h1.2v5l-1.2,8.7
		h2.5l-2.5,16.2l1.2,1.2l-1.2,5v6.2h1.2l5-66c1.7,0,2.5-1.2,2.5-3.7l1.2-1.2H445.7z"/>
	<path class="st2" d="M564.5,855.6h1.2v2.5l1.2-1.2h1.2c5.8,2,8.7,3.6,8.7,5l-6.2,7.5h2.5c3.3-1.7,5-3.8,5-6.2h3.7v1.2l-1.2,1.2
		l1.2,1.2v1.2c-29.5,31.7-43.9,57-43.2,75.9l-2.5,12.4l1.2,1.2v1.2l-6.2,11.2l-10-1.2v-10l-3.7-4.9v-2.5l1.2-14.9l1.2,1.2h1.2
		l-1.2-1.2v-1.2l1.2-1.2v-1.2l-1.2-1.2l3.7-1.2l-1.2,6.2v5h1.2l1.5-15l-1.2-3.7h-1.2v3.7h-1.2l-1.2-10l1.2-1.2v-1.2l-17.1-43.7v-2.5
		h2.5l-2.5-6.2l1.2-1.2h2.5c1.9,0,3.1,2.1,3.7,6.2l3.7-2.5h3.7c0,5.1,4.5,16,13.4,32.5c4.8-9.1,8.9-14.5,12.5-16.2v1.2
		c-8.3,10.5-12.5,16.8-12.5,18.7v1.2h1.2l29.3-39.7v-1.2l-14.4,14.8v-1.2L564.5,855.6z M525,961.2v5h1.2v-5H525z M565.7,874.2
		c-17.9,22.9-26.8,36.1-26.8,39.7h2.5c7.2-13.8,15.7-27.1,25.6-39.7H565.7z M548.9,875.3v1.2l-2.5,2.5v-1.2L548.9,875.3z"/>
	<path class="st2" d="M652.9,856.4l3.7,1.2v2.5h-3.7l2.5,3.7c-1.8,4.2-8.4,6.2-19.9,6.2l-8.7,1.2l-1.2,3.7h1.2
		c-2.5,5.9-7.5,32.5-14.9,79.7l3.7,16.2h-1.2c-1.9,0-3.5-4.2-5-12.5l1.2-12.5v-1.2h-1.2v2.5c-2.5,0-3.7,0.8-3.7,2.5v1.2l2.5,19.9
		v1.2h-2.5l-5-3.7l-1.2,1.2h-1.2c-3.3-7.2-5-13.4-5-18.7l1.2,1.2h1.2l-2.5-8.7l3.7-1.2v-6.2h-2.5v-1.2c2.5,0,3.7-0.8,3.7-2.5v-1.2
		h-2.5c0-6.6,1.2-10,3.7-10V905c1.3-1.2,3-9.9,5-26.1l-8.7,1.2l-17.4-1.2v-1.2l6.2-1.2v1.2l1.2-1.2h18.7v-3.7l-19.9,2.5l-1.2-1.2
		h-1.2l-7.5,1.2l-3.7-2.5l1.2-6.2l-1.2-1.2c0-4.1,5-6.2,14.9-6.2L652.9,856.4z M599.3,929.9l-2.5,27.4h2.5l-1.2-6.2v-2.5l2.5-3.7
		h-1.2l1.2-1.2v-1.2l-1.2-1.2v-1.2l2.5-5l-1.2-5H599.3z M645.4,860.2v1.2h5v-1.2H645.4z"/>
	<path class="st2" d="M672.4,859.1c-0.2,2.5,1.4,3.7,4.7,3.7l2.3,5l-1.3,1.2h1.2c-6,17.6-9.6,37.9-10.9,61l-0.4,7.5l1.2,1.2
		l-0.1,1.2l-1.3,1.2h1.2l-1.3,1.2l0.7,8.7l-0.1,2.5c-4.4,5.4-6.8,9.5-7,12.5h-5l-6-2.5l1.8-8.7l-4.8-5l2.3-18.7l1.2-22.4l2.7-3.7
		l0.3-5l-1.2-1.2l0.1-1.2h2.5l0.1-1.2l-1.2-1.2l5.1-23.7h-1.2l1.3-1.2l0.4-7.5l-1.2-1.2l0.1-1.2L672.4,859.1z M654.6,955l-0.4,6.2
		l2.6-2.5l0.3-3.7H654.6z M654.8,905.2l-0.4,7.5h1.2l0.4-7.5H654.8z M656.7,894l-0.4,7.5h1.2l0.4-7.5H656.7z M658.6,881.6l-0.4,8.7
		h1.2l0.4-8.7H658.6z"/>
	<path class="st2" d="M724.2,860.4h1.2c12.1,0,21.2,5,27.4,14.9v1.2h-2.5l1.2,1.2v1.2c-5-0.6-7.5-1.4-7.5-2.5
		c-19.4,0-33.9,10-43.6,29.9l-2.5,8.7l3.7,23.7h3.7c10.4,0,22-7.5,34.9-22.4h1.2v1.2c-8.8,12.7-18.8,20.2-29.9,22.4v1.2h1.2
		c8.7,0,19.5-7.5,32.4-22.4l3.7,5v3.7c0,2.7-6.2,8.9-18.7,18.7l-1.2,1.2h-1.2v2.5c14.1-6.9,21.2-11.9,21.2-14.9h2.5v1.2
		c-10.5,12.5-22.5,18.7-36.1,18.7v1.2h6.2l5-1.2h1.2v1.2l-14.9,2.4c-6.3,0-12.9-4.5-19.9-13.6v1.2l6.2,10v1.2h-3.7
		c-7.7-5.3-12.3-11.9-13.7-19.8l-1.2-16.2c0-20.8,4.1-34.1,12.5-39.8v1.2l-7.5,12.5v1.2h1.2c0-7.9,10.4-19.1,31.1-33.6l-3.7,1.2
		h-1.2v-1.2L724.2,860.4z M684.3,933.9v3.7l1.2,5h1.2v-1.2l-1.2-7.5H684.3z M699.2,874.1v1.2l-6.2,6.2v-1.2L699.2,874.1z
		 M710.5,865.4h1.2v1.2l-8.7,3.7C703,868.7,705.5,867,710.5,865.4z"/>
	<path class="st2" d="M804,853c0.5,2.5,3.9,3.7,10,3.7l10,43.6h8.7v1.2l-7.5,1.2v1.2c2.5,0,3.7,0.8,3.7,2.5h10v1.2
		c0,1.9-4.2,3.5-12.5,5l2.5,7.5l-1.2,3.7l1.2,7.5l-1.2,1.2h1.2l-1.2,1.2l1.2,14.9v7.5l-1.2-1.2h-1.2l3.7,18.7h-2.5
		c0-2.5-0.8-3.7-2.5-3.7v1.2l1.2,3.7h-1.2l-1.2-1.2h-1.2c0,2.5-0.8,3.7-2.5,3.7l-6.2-21.2h-1.2v5h-1.2l-2.5-14.9l3.7,2.5v-1.2
		c-0.7-7.5-1.9-11.2-3.7-11.2l1.2-1.2v-3.7h-2.5v3.7h-1.2v-5l1.2-1.2h-1.2l-1.2,1.2v-5h1.2l1.2,1.2h1.2l-1.2-1.2v-7.5l-27.4,6.2v2.5
		l8.7-2.5l5,1.2l6.2-1.2v2.5c-17.4,3.1-26.1,7.3-26.1,12.5c-2.2,9.1-4.7,14.9-7.5,17.4v2.5h-3.7l-1.2-1.2h-1.2v1.2l-3.7-2.5l2.5-7.5
		h-1.2c-2.5,0-3.7,3.3-3.7,10l-2.5-2.5l1.2-7.5l-3.7-3.7l21.2-51h1.2c0,2.5,0.8,3.7,2.5,3.7l1.2-6.2l-1.2,1.2h-1.2v-5l1.2-6.2
		l1.2,1.2h1.2l-1.2-1.2v-1.2l2.5-5h1.2l1.2,1.2h1.2v-1.2c0-1.7-1.2-2.5-3.7-2.5l6.2-17.4h5l-1.2,1.2v1.2
		C793.6,854.7,799,853,804,853z M767.9,906.5l-1.2,5h1.2l2.5-5H767.9z M771.6,900.3l-1.2,1.2v2.5h1.2l1.2-3.7H771.6z M779.1,905.3
		l-1.2,5h1.2l1.2-1.2v-3.7H779.1z M785.3,889.1l-2.5,8.7l-1.2-1.2h-1.2l1.2,5h1.2l3.7-11.2v-1.2H785.3z M796.5,881.6l-10,26.1h2.5
		c8.3,0,12.9-2.5,13.7-7.5l-5-18.7H796.5z M789,910.3v1.2h2.5c7.5-0.8,11.2-2.1,11.2-3.7h-1.2L789,910.3z M806.5,937.7h2.5v7.5h-1.2
		L806.5,937.7z M811.5,950.1v2.5l3.7-1.2v-2.5L811.5,950.1z M823.9,946.4v2.5l1.2,5h1.2v-2.5l-1.2-5H823.9z"/>
</g>
<path class="st2" d="M320.9,509c0.6-0.6,0.5-1.2-0.1-1.8c-14.8-16.6-15.1-37.2-0.6-52.9c16-17.5,37.3-20,55.8-6.6
	c24,17.4,23.8,17.2,46.1-3.1c11.4-10.4,24.2-18.7,40.2-20.6c9.9-1.2,20.5-3,23-14.8c2.2-10.6-7.3-14.8-13.9-20.2
	c-1.4-1.1-2.5-2.3-3.7-3.6c-26.5-32-32.7-67.2-15.3-105.3c16-34.9,53.8-56.6,90.5-53c40.8,3.9,74.7,33.3,84.2,72
	c4.9,20,3.9,38.9-6,57.1c-4.8,4.8-10.3,9.2-12.1,16.3c-2,4-4,8-7.9,10.6c-7.5,1.2-9.2,7.9-12.6,13.1c-9.3,10.3-21.7,14-34.7,16.2
	c-5.9,1-11.8,1.7-17,4.9c-11.7,7.1-14,15.9-5.9,27c8.7,11.9,16.8,24,20.2,38.6c3.7,25.6-1,48.6-20.9,66.8l0.1-0.2
	c-7.2,7.4-13.7,15.6-24.2,18.6c-47.8,14.1-81.8-0.6-102.4-43.9c-3.9-19.2-10.1-21.8-25.8-10.9C358.4,526.6,338.5,525.2,320.9,509z"
	/>
<path class="st2" d="M638.6,480.6c-17.8,24.4-33.5,27.7-61.3,12.9c-10-2.8-12.5-10.3-12.5-19.4c2.2-8.1,1-16.3,0.5-24.5
	c7.6-19.7,21.4-28.5,42.9-27.1c19.2,1.2,23-2.2,23.5-21.6c0.4-13.6-0.6-27.2,4.4-40.3c13.6-35.5,45.7-56.7,87.1-57.1
	c4.8,1.2,9.6,2.2,14.5,2.9c9.2,2.6,18.4,5,25.8,11.5c5.7,3.9,9.8,9.4,14.4,14.4c11.7,13.6,19.2,29.3,23.3,46.8
	c3.5,21.6,1.4,41.8-13.6,59.1l0,0c-1.7,4.1-1.7,9-5.4,12.2c-2.7,3-5.7,5.7-9,8.1c-27.9,21.1-58.5,21.6-90.4,11.8
	c-7-2.2-12.2-6.8-16-13.1l-0.1,0.1c-3.5-0.6-5.8-3.4-8.8-4.9c-5.5-1.7-8.8,0.5-10.4,5.7C644.4,465.6,645.7,474.7,638.6,480.6z"/>
<path class="st2" d="M860.9,187.7c19.2,8.5,22.7,26.4,25.2,44c3.1,21.1-4.2,39.6-17,56.5c-11.7,15.4-6.4,28,12.5,31.5
	c24.7,4.7,40.9,19.9,44.6,41.9c3.6,21.3-5.8,43.9-22,52.7c-24,13.1-44.5,11.5-64.7-5.3c-1.7-1.4-3.3-2.8-5-4.1
	c-15.5-17.4-17.1-36.7-7.5-57.3c9.8-21,4-30.9-19.3-31.2c-16.6-0.2-29.9-8.9-44.2-15.4c-1.5-0.9-2.9-1.9-4.1-3.1
	c-4.3-4.5-6.9-10-8.7-15.8c-1.1-6-4.2-11.3-6.7-16.7c-21.5-45.5,18.3-98.5,68.4-99.6C830.5,165.5,848.4,172.3,860.9,187.7z"/>
<path class="st2" d="M301,142.7c6.9-5.4,10.8-13.9,19.1-17.8c20.9-12.2,42-21.5,67.6-17.8c45,6.5,78.6,47.4,75.5,92.9
	c-2,28.7-16.6,49.8-37.2,68.1c-33.1,23.1-75.4,21.1-107.8-5.2c-19.8-16.1-29.2-14-41,9.2c-11.7,23.1-38.8,32-61.5,20.2
	c-21.7-11.2-30.5-39.1-19-60.7c12-22.6,39.4-30.7,62-18.4c2.9,1.6,5.4,3.8,8.3,5.2c12.2,6.1,21.1,0.9,19.8-12.9
	C284.8,182.8,289.8,162.1,301,142.7z"/>
<path class="st2" d="M771.5,475.4c20-7.3,39.8-14.1,62-8.7c37.2,9.1,61.7,34.4,68.4,72.7c5.5,31.7-11.2,67.4-40.1,85.5
	c-30.9,19.4-66.1,18.1-96.9-3.4c-4.5-3.1-8.8-6.5-13.1-9.7c-5.1-7.7-10.2-15.4-15.3-23c-11.2-16.7-25-17.6-38-2.4
	c-14.2,16.5-33.6,21.5-53,13.4c-17.1-7.1-27.2-24.7-25.8-45.2c1.3-19.1,14.4-34.5,34.2-39.1c17-3.9,31,2,43,14.1
	c16.8,16.9,28.5,14.7,37.3-7.6C741.8,502.4,754.9,487.6,771.5,475.4z"/>
<path class="st2" d="M183.2,313.6c40.2-3.4,74,8.1,99.6,40.9c9.1,11.7,22.2,11.2,39.9,1.2c5.3-1.7,9.4-3.5,11.2-10.2
	c6.4-24.1,28.7-33.6,57.7-25.5c17.7,5,31.9,31.9,26.7,50.4c-9.2,32-36.2,43.9-66.4,29.1c-3.4-1.7-6.8-3.6-10.4-5
	c-25.9-10.3-46.1,2.7-47.3,30.4c-1.2,27.1-28.9,64-54.3,72.3c-24.3,8-48.6,11.5-73.3,1.1c-3.3-1.4-7.6-0.4-11.4-0.5
	c-1.9-0.3-3.7-0.7-5.5-1c-55.8-42-62.5-112.4-15.1-157.3C148.4,326.3,165.8,320.2,183.2,313.6z"/>
<path class="st2" d="M708.4,105.9c15,9.2,19.8,25.2,26.2,40c3.8,33.8-2,64.1-30.9,86.2c-36.3,27.8-81.7,24.2-113.6-8.8
	c-3-3.1-6.2-6.1-9.3-9.2c-9.8-8.7-12.1-20.9-14.9-32.8c-0.3-1.6-0.5-3.3-0.4-5c-0.3-5.8,0.9-11.8-1.7-17.4
	c-7.6-14.6-18.7-11.9-30.7-6.5c-25.6,11.7-49.7,3.2-61.4-21.7c-5.4-11.5-4.3-23.4-0.3-35.1c0-2.7,0.3-5.4,3-7
	c3.3-4.5,4.7-10.8,11.5-12c11.5-1,21.5-9.6,34.2-5.3c7.7,2.6,15.3,4.4,21.2,10.4c6.9,6.5,11,14.1,14.1,23.3
	c6.3,18.6,19.7,21.4,33.3,7.1c25.4-26.6,56.4-31.3,90.4-23.8C690.4,90.7,698.8,99.7,708.4,105.9z"/>
</svg>
