<?xml version="1.0" standalone="no"?>
<!DOCTYPE svg PUBLIC "-//W3C//DTD SVG 20010904//EN"
 "http://www.w3.org/TR/2001/REC-SVG-20010904/DTD/svg10.dtd">
<svg version="1.0" xmlns="http://www.w3.org/2000/svg"
 width="700.000000pt" height="700.000000pt" viewBox="0 0 700.000000 700.000000"
 preserveAspectRatio="xMidYMid meet">
<metadata>
Created by potrace 1.11, written by Peter Selinger 2001-2013
</metadata>
<g transform="translate(0.000000,700.000000) scale(0.100000,-0.100000)"
fill="#000000" stroke="none">
<path d="M3460 6212 c-14 -2 -74 -17 -134 -34 -103 -30 -110 -34 -134 -72 -14
-23 -31 -45 -37 -51 -14 -14 -38 -127 -41 -197 -5 -132 87 -277 214 -336 48
-23 70 -26 142 -26 71 1 98 6 165 33 112 45 161 49 204 19 55 -37 72 -76 77
-176 4 -85 25 -176 59 -257 24 -56 213 -240 300 -292 277 -165 607 -122 844
109 145 141 210 324 198 559 -5 99 -8 111 -52 204 -59 127 -89 164 -200 245
-178 131 -219 145 -430 145 -126 0 -164 -5 -231 -28 -112 -40 -185 -85 -289
-181 -53 -49 -120 -87 -145 -82 -75 15 -98 39 -145 150 -37 88 -81 153 -132
192 -56 43 -180 83 -233 76z"/>
<path d="M2258 5909 c-84 -13 -162 -40 -277 -97 -93 -47 -127 -69 -182 -126
-129 -129 -185 -288 -188 -527 -2 -130 -10 -161 -48 -178 -40 -19 -64 -13
-168 40 -87 44 -110 51 -172 54 -409 22 -550 -516 -183 -702 49 -24 66 -27
155 -28 90 0 106 3 159 29 74 36 130 93 186 187 105 179 163 188 348 51 153
-112 273 -155 442 -156 132 -1 178 6 268 40 102 38 162 77 232 151 86 89 133
155 174 245 186 401 -42 879 -474 997 -82 23 -198 31 -272 20z"/>
<path d="M5960 5423 c-247 -18 -442 -140 -552 -343 -44 -82 -63 -158 -63 -260
0 -102 13 -153 66 -267 16 -34 29 -67 29 -72 0 -24 52 -126 76 -148 27 -25
188 -104 259 -128 48 -16 93 -24 160 -29 79 -6 132 -24 156 -54 18 -23 20 -36
16 -87 -3 -35 -19 -91 -37 -134 -81 -189 -34 -378 123 -497 98 -74 157 -97
260 -100 77 -3 98 0 169 26 120 44 186 100 232 196 52 110 59 255 16 366 -26
71 -102 156 -173 197 -45 25 -81 38 -222 78 -37 11 -77 46 -91 78 -22 54 -12
85 70 214 79 124 108 209 112 321 5 170 -44 327 -126 404 -27 26 -53 46 -59
46 -5 0 -27 17 -48 38 -82 81 -183 134 -283 147 -24 4 -47 8 -50 9 -3 1 -21 0
-40 -1z"/>
<path d="M3540 4910 c-213 -37 -422 -187 -533 -381 -113 -198 -135 -458 -55
-659 47 -121 141 -256 218 -314 65 -49 84 -78 82 -123 -3 -81 -57 -122 -188
-143 -128 -21 -228 -75 -374 -205 -86 -77 -130 -99 -174 -91 -17 4 -74 35
-126 70 -131 88 -207 111 -308 92 -91 -17 -204 -107 -252 -202 -34 -67 -35
-187 -2 -254 41 -84 93 -141 162 -179 61 -34 71 -36 155 -36 79 0 97 4 150 29
33 16 62 32 65 36 9 13 101 58 113 56 55 -10 75 -34 101 -120 22 -73 97 -188
170 -261 113 -112 244 -165 406 -165 89 0 103 1 214 26 100 22 138 45 241 148
151 151 199 258 199 446 0 36 -3 86 -6 112 -9 60 -64 181 -126 272 -72 105
-85 134 -78 174 12 74 92 127 221 148 102 16 231 71 270 114 10 11 32 41 49
67 17 26 40 49 51 51 31 6 55 32 87 95 16 32 46 77 66 100 47 53 65 87 87 162
20 66 28 217 15 268 -5 18 -11 46 -14 62 -19 120 -119 298 -223 396 -108 103
-265 182 -410 207 -66 11 -195 13 -253 2z"/>
<path d="M5188 4285 c-2 -1 -32 -5 -68 -8 -217 -20 -419 -135 -537 -307 -86
-126 -112 -216 -118 -412 -9 -241 -21 -258 -191 -257 -114 0 -140 -4 -204 -37
-54 -27 -100 -74 -130 -132 -19 -37 -23 -62 -25 -175 -4 -183 2 -198 110 -248
148 -70 245 -81 329 -38 51 25 88 59 152 135 42 50 53 73 68 136 18 76 43 118
72 118 26 0 101 -45 129 -78 49 -59 126 -89 295 -117 49 -9 190 -9 230 0 14 2
39 7 55 11 107 21 279 116 343 189 17 19 35 51 41 71 5 19 21 50 34 67 64 84
98 193 99 310 0 110 -8 154 -45 256 -68 188 -208 368 -342 439 -40 21 -120 48
-166 57 -13 3 -37 7 -52 11 -35 7 -76 12 -79 9z"/>
<path d="M761 4202 c-48 -7 -250 -100 -319 -146 -168 -111 -304 -320 -338
-518 -10 -57 -11 -199 -1 -265 24 -168 143 -379 290 -512 77 -70 93 -78 158
-80 34 -1 78 -8 98 -16 65 -25 120 -36 204 -40 144 -6 357 42 462 106 121 73
251 231 313 380 30 73 34 91 48 199 15 118 77 206 166 236 85 28 142 17 333
-62 79 -32 101 -37 175 -38 74 -1 92 3 145 28 96 46 168 141 199 259 36 136
-38 312 -163 389 -83 52 -276 62 -364 19 -77 -37 -135 -102 -157 -177 -18 -61
-46 -87 -135 -126 -151 -67 -215 -59 -304 36 -91 98 -117 122 -173 164 -146
109 -306 161 -508 165 -58 2 -116 1 -129 -1z"/>
<path d="M5815 2928 c-164 -41 -207 -64 -298 -151 -93 -90 -168 -196 -212
-299 -70 -162 -161 -191 -276 -86 -127 114 -186 144 -302 152 -18 2 -72 -9
-142 -27 -5 -2 -31 -15 -57 -31 -102 -60 -161 -163 -165 -288 -5 -168 71 -295
213 -360 39 -17 69 -22 144 -22 123 -1 175 22 286 126 92 86 132 105 193 88
59 -16 91 -48 177 -176 83 -123 140 -174 274 -247 290 -157 634 -98 858 147
86 95 162 241 178 344 3 20 8 40 10 44 6 10 6 149 -1 183 -18 94 -40 160 -81
242 -89 180 -244 301 -464 363 -92 25 -231 25 -335 -2z"/>
</g>
</svg>
